<?xml version="1.0" standalone="no"?><!DOCTYPE svg PUBLIC "-//W3C//DTD SVG 1.1//EN" "http://www.w3.org/Graphics/SVG/1.1/DTD/svg11.dtd"><svg t="1507964940147" class="icon" style="" viewBox="0 0 1024 1024" version="1.1" xmlns="http://www.w3.org/2000/svg" p-id="1882" xmlns:xlink="http://www.w3.org/1999/xlink" width="200" height="200"><defs><style type="text/css"></style></defs><path d="M582.4 838.4H441.6l6.4 115.2H64V1024h896v-70.4H576l6.4-115.2zM928 0h-832C44.8 0 0 44.8 0 102.4v620.8c0 57.6 44.8 102.4 96 102.4h832c51.2 0 96-44.8 96-102.4V102.4c0-57.6-44.8-102.4-96-102.4z m32 723.2c0 19.2-12.8 32-32 32h-832c-19.2 0-32-12.8-32-32V102.4c0-19.2 12.8-32 32-32h832c19.2 0 32 12.8 32 32v620.8z" p-id="1883" fill="#2c2c2c"></path></svg>