<?xml version="1.0" standalone="no"?><!DOCTYPE svg PUBLIC "-//W3C//DTD SVG 1.1//EN" "http://www.w3.org/Graphics/SVG/1.1/DTD/svg11.dtd"><svg t="1505182215734" class="icon" style="" viewBox="0 0 1024 1024" version="1.1" xmlns="http://www.w3.org/2000/svg" p-id="2362" xmlns:xlink="http://www.w3.org/1999/xlink" width="200" height="200"><defs><style type="text/css"></style></defs><path d="M327.68 675.84l506.88-506.88c20.48-20.48 51.2-20.48 71.68 0l5.12 5.12c20.48 20.48 20.48 51.2 0 71.68l-506.88 506.88c-20.48 20.48-51.2 20.48-71.68 0l-5.12-5.12C312.32 721.92 312.32 691.2 327.68 675.84z" p-id="2363"></path><path d="M153.6 414.72 404.48 665.6c20.48 20.48 20.48 51.2 0 71.68l-5.12 5.12c-20.48 20.48-51.2 20.48-71.68 0L81.92 486.4c-20.48-20.48-20.48-51.2 0-71.68l5.12-5.12C102.4 399.36 133.12 399.36 153.6 414.72z" p-id="2364"></path></svg>